{
    "asset" : {
        "generator" : "Khronos glTF Blender I/O v1.2.75",
        "version" : "2.0"
    },
    "scene" : 0,
    "scenes" : [
        {
            "name" : "Scene",
            "nodes" : [
                0,
                1,
                2,
                3,
                4,
                5,
                6,
                7,
                8,
                9
            ]
        }
    ],
    "nodes" : [
        {
            "mesh" : 0,
            "name" : "Tile_Grass"
        },
        {
            "mesh" : 1,
            "name" : "Tile_Water"
        },
        {
            "mesh" : 2,
            "name" : "Tile_TreeA"
        },
        {
            "mesh" : 3,
            "name" : "Tile_Shrub"
        },
        {
            "mesh" : 4,
            "name" : "Tile_Wall"
        },
        {
            "mesh" : 5,
            "name" : "Tile_WallCorner"
        },
        {
            "mesh" : 6,
            "name" : "Tile_Path"
        },
        {
            "mesh" : 7,
            "name" : "Tile_PathCorner"
        },
        {
            "mesh" : 8,
            "name" : "Tile_PathRamp"
        },
        {
            "mesh" : 9,
            "name" : "Tile_GrassRamp"
        }
    ],
    "materials" : [
        {
            "doubleSided" : true,
            "name" : "TextureMaterial",
            "pbrMetallicRoughness" : {}
        }
    ],
    "meshes" : [
        {
            "name" : "Cube.004",
            "primitives" : [
                {
                    "attributes" : {
                        "POSITION" : 0,
                        "NORMAL" : 1,
                        "TEXCOORD_0" : 2
                    },
                    "indices" : 3,
                    "material" : 0
                }
            ]
        },
        {
            "name" : "Cube.002",
            "primitives" : [
                {
                    "attributes" : {
                        "POSITION" : 4,
                        "NORMAL" : 5,
                        "TEXCOORD_0" : 6
                    },
                    "indices" : 7,
                    "material" : 0
                }
            ]
        },
        {
            "name" : "Cube.013",
            "primitives" : [
                {
                    "attributes" : {
                        "POSITION" : 8,
                        "NORMAL" : 9,
                        "TEXCOORD_0" : 10
                    },
                    "indices" : 11,
                    "material" : 0
                }
            ]
        },
        {
            "name" : "Icosphere",
            "primitives" : [
                {
                    "attributes" : {
                        "POSITION" : 12,
                        "NORMAL" : 13,
                        "TEXCOORD_0" : 14
                    },
                    "indices" : 15,
                    "material" : 0
                }
            ]
        },
        {
            "name" : "Cube.009",
            "primitives" : [
                {
                    "attributes" : {
                        "POSITION" : 16,
                        "NORMAL" : 17,
                        "TEXCOORD_0" : 18
                    },
                    "indices" : 19,
                    "material" : 0
                }
            ]
        },
        {
            "name" : "Cube.010",
            "primitives" : [
                {
                    "attributes" : {
                        "POSITION" : 20,
                        "NORMAL" : 21,
                        "TEXCOORD_0" : 22
                    },
                    "indices" : 23,
                    "material" : 0
                }
            ]
        },
        {
            "name" : "Cube.006",
            "primitives" : [
                {
                    "attributes" : {
                        "POSITION" : 24,
                        "NORMAL" : 25,
                        "TEXCOORD_0" : 26
                    },
                    "indices" : 27,
                    "material" : 0
                }
            ]
        },
        {
            "name" : "Cube.001",
            "primitives" : [
                {
                    "attributes" : {
                        "POSITION" : 28,
                        "NORMAL" : 29,
                        "TEXCOORD_0" : 30
                    },
                    "indices" : 31,
                    "material" : 0
                }
            ]
        },
        {
            "name" : "Cube.003",
            "primitives" : [
                {
                    "attributes" : {
                        "POSITION" : 32,
                        "NORMAL" : 33,
                        "TEXCOORD_0" : 34
                    },
                    "indices" : 35,
                    "material" : 0
                }
            ]
        },
        {
            "name" : "Cube.012",
            "primitives" : [
                {
                    "attributes" : {
                        "POSITION" : 36,
                        "NORMAL" : 37,
                        "TEXCOORD_0" : 38
                    },
                    "indices" : 35,
                    "material" : 0
                }
            ]
        }
    ],
    "accessors" : [
        {
            "bufferView" : 0,
            "componentType" : 5126,
            "count" : 306,
            "max" : [
                1,
                4.197135012873332e-07,
                1.000000238418579
            ],
            "min" : [
                -1,
                -1.0000004768371582,
                -1
            ],
            "type" : "VEC3"
        },
        {
            "bufferView" : 1,
            "componentType" : 5126,
            "count" : 306,
            "type" : "VEC3"
        },
        {
            "bufferView" : 2,
            "componentType" : 5126,
            "count" : 306,
            "type" : "VEC2"
        },
        {
            "bufferView" : 3,
            "componentType" : 5123,
            "count" : 576,
            "type" : "SCALAR"
        },
        {
            "bufferView" : 4,
            "componentType" : 5126,
            "count" : 311,
            "max" : [
                1,
                4.197135012873332e-07,
                1.000000238418579
            ],
            "min" : [
                -1,
                -1.0000004768371582,
                -1
            ],
            "type" : "VEC3"
        },
        {
            "bufferView" : 5,
            "componentType" : 5126,
            "count" : 311,
            "type" : "VEC3"
        },
        {
            "bufferView" : 6,
            "componentType" : 5126,
            "count" : 311,
            "type" : "VEC2"
        },
        {
            "bufferView" : 7,
            "componentType" : 5123,
            "count" : 576,
            "type" : "SCALAR"
        },
        {
            "bufferView" : 8,
            "componentType" : 5126,
            "count" : 1551,
            "max" : [
                1.6808160543441772,
                6.044442653656006,
                1.654617190361023
            ],
            "min" : [
                -2.200165271759033,
                -1.0000009536743164,
                -1.53972327709198
            ],
            "type" : "VEC3"
        },
        {
            "bufferView" : 9,
            "componentType" : 5126,
            "count" : 1551,
            "type" : "VEC3"
        },
        {
            "bufferView" : 10,
            "componentType" : 5126,
            "count" : 1551,
            "type" : "VEC2"
        },
        {
            "bufferView" : 11,
            "componentType" : 5123,
            "count" : 2130,
            "type" : "SCALAR"
        },
        {
            "bufferView" : 12,
            "componentType" : 5126,
            "count" : 1136,
            "max" : [
                0.9891031384468079,
                1.5470409393310547,
                0.9928850531578064
            ],
            "min" : [
                -0.991599977016449,
                -0.9982657432556152,
                -0.9878179430961609
            ],
            "type" : "VEC3"
        },
        {
            "bufferView" : 13,
            "componentType" : 5126,
            "count" : 1136,
            "type" : "VEC3"
        },
        {
            "bufferView" : 14,
            "componentType" : 5126,
            "count" : 1136,
            "type" : "VEC2"
        },
        {
            "bufferView" : 15,
            "componentType" : 5123,
            "count" : 1146,
            "type" : "SCALAR"
        },
        {
            "bufferView" : 16,
            "componentType" : 5126,
            "count" : 550,
            "max" : [
                1,
                3.500000476837158,
                1
            ],
            "min" : [
                -1.0005146265029907,
                -1.0000004768371582,
                -1.2019871473312378
            ],
            "type" : "VEC3"
        },
        {
            "bufferView" : 17,
            "componentType" : 5126,
            "count" : 550,
            "type" : "VEC3"
        },
        {
            "bufferView" : 18,
            "componentType" : 5126,
            "count" : 550,
            "type" : "VEC2"
        },
        {
            "bufferView" : 19,
            "componentType" : 5123,
            "count" : 1008,
            "type" : "SCALAR"
        },
        {
            "bufferView" : 20,
            "componentType" : 5126,
            "count" : 757,
            "max" : [
                1,
                3.500000476837158,
                1.000515103340149
            ],
            "min" : [
                -1.2000912427902222,
                -1.0000004768371582,
                -1.2019871473312378
            ],
            "type" : "VEC3"
        },
        {
            "bufferView" : 21,
            "componentType" : 5126,
            "count" : 757,
            "type" : "VEC3"
        },
        {
            "bufferView" : 22,
            "componentType" : 5126,
            "count" : 757,
            "type" : "VEC2"
        },
        {
            "bufferView" : 23,
            "componentType" : 5123,
            "count" : 1314,
            "type" : "SCALAR"
        },
        {
            "bufferView" : 24,
            "componentType" : 5126,
            "count" : 297,
            "max" : [
                1,
                4.197135012873332e-07,
                1
            ],
            "min" : [
                -1,
                -1.0000004768371582,
                -1.000000238418579
            ],
            "type" : "VEC3"
        },
        {
            "bufferView" : 25,
            "componentType" : 5126,
            "count" : 297,
            "type" : "VEC3"
        },
        {
            "bufferView" : 26,
            "componentType" : 5126,
            "count" : 297,
            "type" : "VEC2"
        },
        {
            "bufferView" : 27,
            "componentType" : 5123,
            "count" : 576,
            "type" : "SCALAR"
        },
        {
            "bufferView" : 28,
            "componentType" : 5126,
            "count" : 309,
            "max" : [
                1,
                4.197135012873332e-07,
                1
            ],
            "min" : [
                -1,
                -1.0000004768371582,
                -1.000000238418579
            ],
            "type" : "VEC3"
        },
        {
            "bufferView" : 29,
            "componentType" : 5126,
            "count" : 309,
            "type" : "VEC3"
        },
        {
            "bufferView" : 30,
            "componentType" : 5126,
            "count" : 309,
            "type" : "VEC2"
        },
        {
            "bufferView" : 31,
            "componentType" : 5123,
            "count" : 576,
            "type" : "SCALAR"
        },
        {
            "bufferView" : 32,
            "componentType" : 5126,
            "count" : 306,
            "max" : [
                1,
                1,
                1.000000238418579
            ],
            "min" : [
                -1,
                -1.0000004768371582,
                -1.000000238418579
            ],
            "type" : "VEC3"
        },
        {
            "bufferView" : 33,
            "componentType" : 5126,
            "count" : 306,
            "type" : "VEC3"
        },
        {
            "bufferView" : 34,
            "componentType" : 5126,
            "count" : 306,
            "type" : "VEC2"
        },
        {
            "bufferView" : 35,
            "componentType" : 5123,
            "count" : 576,
            "type" : "SCALAR"
        },
        {
            "bufferView" : 36,
            "componentType" : 5126,
            "count" : 306,
            "max" : [
                1,
                1,
                1.000000238418579
            ],
            "min" : [
                -1,
                -1.0000004768371582,
                -1.000000238418579
            ],
            "type" : "VEC3"
        },
        {
            "bufferView" : 37,
            "componentType" : 5126,
            "count" : 306,
            "type" : "VEC3"
        },
        {
            "bufferView" : 38,
            "componentType" : 5126,
            "count" : 306,
            "type" : "VEC2"
        }
    ],
    "bufferViews" : [
        {
            "buffer" : 0,
            "byteLength" : 3672,
            "byteOffset" : 0
        },
        {
            "buffer" : 0,
            "byteLength" : 3672,
            "byteOffset" : 3672
        },
        {
            "buffer" : 0,
            "byteLength" : 2448,
            "byteOffset" : 7344
        },
        {
            "buffer" : 0,
            "byteLength" : 1152,
            "byteOffset" : 9792
        },
        {
            "buffer" : 0,
            "byteLength" : 3732,
            "byteOffset" : 10944
        },
        {
            "buffer" : 0,
            "byteLength" : 3732,
            "byteOffset" : 14676
        },
        {
            "buffer" : 0,
            "byteLength" : 2488,
            "byteOffset" : 18408
        },
        {
            "buffer" : 0,
            "byteLength" : 1152,
            "byteOffset" : 20896
        },
        {
            "buffer" : 0,
            "byteLength" : 18612,
            "byteOffset" : 22048
        },
        {
            "buffer" : 0,
            "byteLength" : 18612,
            "byteOffset" : 40660
        },
        {
            "buffer" : 0,
            "byteLength" : 12408,
            "byteOffset" : 59272
        },
        {
            "buffer" : 0,
            "byteLength" : 4260,
            "byteOffset" : 71680
        },
        {
            "buffer" : 0,
            "byteLength" : 13632,
            "byteOffset" : 75940
        },
        {
            "buffer" : 0,
            "byteLength" : 13632,
            "byteOffset" : 89572
        },
        {
            "buffer" : 0,
            "byteLength" : 9088,
            "byteOffset" : 103204
        },
        {
            "buffer" : 0,
            "byteLength" : 2292,
            "byteOffset" : 112292
        },
        {
            "buffer" : 0,
            "byteLength" : 6600,
            "byteOffset" : 114584
        },
        {
            "buffer" : 0,
            "byteLength" : 6600,
            "byteOffset" : 121184
        },
        {
            "buffer" : 0,
            "byteLength" : 4400,
            "byteOffset" : 127784
        },
        {
            "buffer" : 0,
            "byteLength" : 2016,
            "byteOffset" : 132184
        },
        {
            "buffer" : 0,
            "byteLength" : 9084,
            "byteOffset" : 134200
        },
        {
            "buffer" : 0,
            "byteLength" : 9084,
            "byteOffset" : 143284
        },
        {
            "buffer" : 0,
            "byteLength" : 6056,
            "byteOffset" : 152368
        },
        {
            "buffer" : 0,
            "byteLength" : 2628,
            "byteOffset" : 158424
        },
        {
            "buffer" : 0,
            "byteLength" : 3564,
            "byteOffset" : 161052
        },
        {
            "buffer" : 0,
            "byteLength" : 3564,
            "byteOffset" : 164616
        },
        {
            "buffer" : 0,
            "byteLength" : 2376,
            "byteOffset" : 168180
        },
        {
            "buffer" : 0,
            "byteLength" : 1152,
            "byteOffset" : 170556
        },
        {
            "buffer" : 0,
            "byteLength" : 3708,
            "byteOffset" : 171708
        },
        {
            "buffer" : 0,
            "byteLength" : 3708,
            "byteOffset" : 175416
        },
        {
            "buffer" : 0,
            "byteLength" : 2472,
            "byteOffset" : 179124
        },
        {
            "buffer" : 0,
            "byteLength" : 1152,
            "byteOffset" : 181596
        },
        {
            "buffer" : 0,
            "byteLength" : 3672,
            "byteOffset" : 182748
        },
        {
            "buffer" : 0,
            "byteLength" : 3672,
            "byteOffset" : 186420
        },
        {
            "buffer" : 0,
            "byteLength" : 2448,
            "byteOffset" : 190092
        },
        {
            "buffer" : 0,
            "byteLength" : 1152,
            "byteOffset" : 192540
        },
        {
            "buffer" : 0,
            "byteLength" : 3672,
            "byteOffset" : 193692
        },
        {
            "buffer" : 0,
            "byteLength" : 3672,
            "byteOffset" : 197364
        },
        {
            "buffer" : 0,
            "byteLength" : 2448,
            "byteOffset" : 201036
        }
    ],
    "buffers" : [
        {
            "byteLength" : 203484,
            "uri" : "data:application/octet-stream;base64,"
        }
    ]
}
